<svg width="32" height="32" viewBox="0 0 32 32" fill="none" xmlns="http://www.w3.org/2000/svg">
<path opacity="0.4" d="M29.3332 15.9998C29.3332 23.3638 23.3638 29.3332 15.9998 29.3332C8.63584 29.3332 2.6665 23.3638 2.6665 15.9998C2.6665 8.63717 8.63584 2.6665 15.9998 2.6665C23.3638 2.6665 29.3332 8.63717 29.3332 15.9998Z" fill="black"/>
<path d="M21.1463 11.6066L18.9863 18.4332C18.9063 18.7132 18.6796 18.9399 18.3996 19.0212L11.5996 21.1532C11.1463 21.3012 10.7063 20.8599 10.853 20.4066L12.9863 13.5666C13.0663 13.2866 13.293 13.0732 13.573 12.9799L20.3996 10.8466C20.8663 10.6999 21.293 11.1399 21.1463 11.6066Z" fill="black"/>
</svg>
