<svg width="28" height="28" viewBox="0 0 28 28" fill="none" xmlns="http://www.w3.org/2000/svg">
<path opacity="0.4" d="M20.2192 27.3194H7.77992C5.85122 27.4393 3.95716 26.7707 2.53195 25.468C1.22928 24.0415 0.56063 22.1474 0.680507 20.2201V7.7796C0.56063 5.85226 1.22795 3.95821 2.53062 2.53169C3.95716 1.22903 5.85122 0.560387 7.77992 0.680263H20.2192C22.1452 0.560387 24.038 1.2277 25.4632 2.53035C26.7645 3.95821 27.4345 5.85093 27.3199 7.7796V20.2201C27.4385 22.1474 26.7712 24.0415 25.4685 25.468C24.042 26.7707 22.1479 27.4393 20.2192 27.3194Z" fill="black"/>
<path d="M20.7395 11.8633L12.0024 20.6437C11.5481 21.086 10.9509 21.3332 10.3277 21.3332H7.27691C7.10814 21.3332 6.95236 21.2681 6.83552 21.1511C6.71868 21.034 6.66675 20.8779 6.66675 20.7088L6.74464 17.6259C6.75762 17.0145 7.00429 16.4421 7.4327 16.0128L13.6252 9.80797C13.7291 9.7039 13.9108 9.7039 14.0147 9.80797L16.1866 11.9712C16.3294 12.113 16.5371 12.2054 16.7578 12.2054C17.2382 12.2054 17.6147 11.8151 17.6147 11.3468C17.6147 11.1127 17.5238 10.9046 17.381 10.7485C17.342 10.6964 15.274 8.63724 15.274 8.63724C15.1441 8.50715 15.1441 8.28602 15.274 8.15593L16.1438 7.27138C16.9487 6.46488 18.2469 6.46488 19.0518 7.27138L20.7395 8.96244C21.5314 9.75593 21.5314 11.0567 20.7395 11.8633Z" fill="black"/>
</svg>
